<?xml version="1.0" encoding="UTF-8"?>
<svg width="38px" height="29px" viewBox="0 0 38 29" version="1.1" xmlns="http://www.w3.org/2000/svg" xmlns:xlink="http://www.w3.org/1999/xlink">
    <!-- Generator: Sketch 53.2 (72643) - https://sketchapp.com -->
    <title>Car-name</title>
    <desc>Created with Sketch.</desc>
    <g id="Loan" stroke="none" stroke-width="1" fill="none" fill-rule="evenodd">
        <g id="Desktop-UC-Loan-page" transform="translate(-137.000000, -1142.000000)" fill="#24272C" fill-rule="nonzero">
            <g id="Group-16" transform="translate(93.000000, 993.000000)">
                <g id="Group-7" transform="translate(24.000000, 88.000000)">
                    <g id="family-car">
                        <g id="Car-name" transform="translate(20.000000, 61.000000)">
                            <path d="M33.6058824,10.2352941 L31.5588235,4.60588235 C30.5352941,1.87647059 27.9764706,0 25.0764706,0 L12.4529412,0 C9.55294118,0 6.99411765,1.87647059 5.97058824,4.60588235 L3.92352941,10.2352941 C1.70588235,10.4058824 0,12.2823529 0,14.5 L0,19.6176471 C0,21.4941176 1.19411765,23.0294118 2.9,23.7117647 L2.9,25.5882353 C2.9,27.4647059 4.43529412,29 6.31176471,29 C8.18823529,29 9.72352941,27.4647059 9.72352941,25.5882353 L9.72352941,23.8823529 L27.6352941,23.8823529 L27.6352941,25.5882353 C27.6352941,27.4647059 29.1705882,29 31.0470588,29 C32.9235294,29 34.4588235,27.4647059 34.4588235,25.5882353 L34.4588235,23.7117647 C36.3352941,23.2 37.5294118,21.4941176 37.5294118,19.6176471 L37.5294118,14.5 C37.5294118,12.2823529 35.8235294,10.4058824 33.6058824,10.2352941 Z M7.67647059,5.11764706 C8.35882353,3.07058824 10.2352941,1.70588235 12.4529412,1.70588235 L25.0764706,1.70588235 C27.2941176,1.70588235 29.1705882,3.07058824 29.8529412,5.11764706 L31.5588235,10.2352941 L5.8,10.2352941 L7.67647059,5.11764706 Z M8.01764706,25.5882353 C8.01764706,26.6117647 7.33529412,27.2941176 6.31176471,27.2941176 C5.28823529,27.2941176 4.60588235,26.6117647 4.60588235,25.5882353 L4.60588235,23.8823529 L8.01764706,23.8823529 L8.01764706,25.5882353 Z M32.7529412,25.5882353 C32.7529412,26.6117647 32.0705882,27.2941176 31.0470588,27.2941176 C30.0235294,27.2941176 29.3411765,26.6117647 29.3411765,25.5882353 L29.3411765,23.8823529 L32.7529412,23.8823529 L32.7529412,25.5882353 Z M35.8235294,19.6176471 C35.8235294,20.9823529 34.6294118,22.1764706 33.2647059,22.1764706 L27.6352941,22.1764706 L9.72352941,22.1764706 L4.26470588,22.1764706 C2.9,22.1764706 1.70588235,20.9823529 1.70588235,19.6176471 L1.70588235,14.5 C1.70588235,13.1352941 2.9,11.9411765 4.26470588,11.9411765 L33.2647059,11.9411765 C34.6294118,11.9411765 35.8235294,13.1352941 35.8235294,14.5 L35.8235294,19.6176471 Z" id="Shape"></path>
                            <circle id="Oval" cx="29" cy="17.0588235" r="1.70588235"></circle>
                            <circle id="Oval" cx="8.52941176" cy="17.0588235" r="1.70588235"></circle>
                        </g>
                    </g>
                </g>
            </g>
        </g>
    </g>
</svg>