<?xml version="1.0" encoding="UTF-8"?>
<svg width="24px" height="32px" viewBox="0 0 24 32" version="1.1" xmlns="http://www.w3.org/2000/svg" xmlns:xlink="http://www.w3.org/1999/xlink">
    <!-- Generator: Sketch 53.2 (72643) - https://sketchapp.com -->
    <title>Service-cost</title>
    <desc>Created with Sketch.</desc>
    <g id="Loan" stroke="none" stroke-width="1" fill="none" fill-rule="evenodd">
        <g id="Desktop-UC-Loan-page" transform="translate(-437.000000, -1139.000000)" fill="#24272C">
            <g id="Group-16" transform="translate(93.000000, 993.000000)">
                <g id="Group-7" transform="translate(324.000000, 88.000000)">
                    <g id="family-car">
                        <g id="Service-cost" transform="translate(20.000000, 58.000000)">
                            <g id="Shape">
                                <path d="M19.1176471,0 L4.41176471,0 C1.91176471,0 0,1.89090909 0,4.36363636 L0,32 L3.97058824,29.0909091 L7.94117647,32 L11.7647059,29.0909091 L15.7352941,32 L19.7058824,29.0909091 L23.6764706,32 L23.6764706,4.36363636 C23.5294118,1.89090909 21.6176471,0 19.1176471,0 Z M22.0588235,29.0909091 L19.5588235,27.3454545 L15.5882353,30.2545455 L11.6176471,27.3454545 L7.64705882,30.2545455 L3.67647059,27.3454545 L1.47058824,29.0909091 L1.47058824,4.36363636 C1.47058824,2.76363636 2.79411765,1.45454545 4.41176471,1.45454545 L19.1176471,1.45454545 C20.7352941,1.45454545 22.0588235,2.76363636 22.0588235,4.36363636 L22.0588235,29.0909091 Z" fill-rule="nonzero"></path>
                                <path d="M18.2352941,8.72727273 L5,8.72727273 C4.55882353,8.72727273 4.11764706,9.16363636 4.11764706,9.6 C4.11764706,10.0363636 4.55882353,10.4727273 5,10.4727273 L18.2352941,10.4727273 C18.6764706,10.4727273 19.1176471,10.0363636 19.1176471,9.6 C19.1176471,9.16363636 18.8235294,8.72727273 18.2352941,8.72727273 Z" fill-rule="nonzero"></path>
                                <path d="M18.2352941,13.0909091 L5,13.0909091 C4.55882353,13.0909091 4.11764706,13.5272727 4.11764706,13.9636364 C4.11764706,14.4 4.55882353,14.8363636 5,14.8363636 L18.2352941,14.8363636 C18.6764706,14.8363636 19.1176471,14.4 19.1176471,13.9636364 C19.1176471,13.5272727 18.8235294,13.0909091 18.2352941,13.0909091 Z" fill-rule="nonzero"></path>
                                <path d="M18.2352941,17.4545455 L5,17.4545455 C4.55882353,17.4545455 4.11764706,17.8909091 4.11764706,18.3272727 C4.11764706,18.7636364 4.55882353,19.2 5,19.2 L18.2352941,19.2 C18.6764706,19.2 19.1176471,18.7636364 19.1176471,18.3272727 C19.1176471,17.8909091 18.8235294,17.4545455 18.2352941,17.4545455 Z" fill-rule="nonzero"></path>
                            </g>
                        </g>
                    </g>
                </g>
            </g>
        </g>
    </g>
</svg>